/* XPM */
static char *MatraDatavision[] = {
/* width height num_colors chars_per_pixel */
"   110    40        6            1",
/* colors */
". c #ffffff",
"# c #000000",
"a c #999999",
"b c #c7c7c7",
"c c #0000ff",
"d c #20b2aa",
/* pixels */
"cccccccccccccccccccccccccccccccccccccccccccccccccccccccccccccccccccccccccccccccccccccccccccccccccccccccccccccc",
"cccccccccccccccccccccccccccccccccccccccccccccccccccccccccccccccccccccccccccccccccccccccccccccccccccccccccccccc",
"cccccccccccccccccccccccccccccccccccccccccccccccccccccccccccccccccccccccccccccccccccccccccccccccccccccccccccccc",
"cccccccccccccccccccccccccccccccccccccccccccccccccccccccccccccccccccccccccccccccccccccccccccccccccccccccccccccc",
"ccccccccccccccccccccccccccccccccccccccccccccccccccccccccccccccccccccccccccccccccccccccccccc.c.c..dcccccccccccc",
"cccc.ccccccccccc.ccccccccc.ccccccc.............ccc.......dccccccccccccc.cccccccccccccccccd.c.c..c..dcccccccccc",
"cccc..ccccccccc..ccccccccd.dcccccc.............ccc........dcccccccccccd.dcccccccccccccccd.c.c..c..c.dccccccccc",
"cccc...ccccccc...cccccccc...cccccc.............ccc...cc....ccccccccccc...ccccccccccccccd.c.c..c..c..ddcccccccc",
"cccc....ccccc....cccccccd...dcccccccccc...cccccccc...ccd...ccccccccccd...dccccccccccccd.cccd.c..c..c..cccccccc",
"cccc.....ccc.....ccccccc.....cccccccccc...cccccccc...cccd..cccccccccc.....cccccccccccd.c.ccccd.c..c...dccccccc",
"cccc......c......ccccccc.....cccccccccc...cccccccc...ccd...cccccccccc.....ccccccccccc.c.c.cccccd.c....cccccccc",
"cccc.............ccccccd.....dccccccccc...cccccccc...cc...dcccccccccd.....dcccccccccdc.c...dccccccd..c.ccccccc",
"cccc...c.....c...cccccc...d...ccccccccc...cccccccc........cccccccccc...d...cccccccccc.c..c..dcccccccc..ccccccc",
"cccc...cc...cc...cccccd...c...dcccccccc...cccccccc......dccccccccccd...d...dccccccccdc..c..dccccccccd..ccccccc",
"cccc...ccc.ccc...ccccc...dcd...cccccccc...cccccccc......ccccccccccc...dcd...ccccccccc..c..ccccccc.c....ccccccc",
"cccc...ccccccc...ccccc...ccc...cccccccc...cccccccc...d...cccccccccc...ccc...ccccccccc.c..cccccd..c.....ccccccc",
"cccc...ccccccc...ccccd.........dccccccc...cccccccc...cd..dccccccccd.........dccccccccc..cccd....c.....dccccccc",
"cccc...ccccccc...cccc...........ccccccc...cccccccc...cc...dccccccc...........ccccccccc.c..c....c......cccccccc",
"cccc...ccccccc...cccd...ccccc...dcccccc...cccccccc...ccd...ccccccd...dcccd...dccccccccc..c....c......dcccccccc",
"cccc...ccccccc...ccc...dcccccd...cccccc...cccccccc...cccd...ccccc...dcccccd...ccccccccccd....c......dccccccccc",
"cccc...ccccccc...ccc...ccccccc...cccccc...cccccccc...cccc....cccc...ccccccc...ccccccccccc...c......dcccccccccc",
"cccccccccccccccccccccccccccccccccccccccccccccccccccccccccccccccccccccccccccccccccccccccccccd.....dcccccccccccc",
"cccccccccccccccccccccccccccccccccccccccccccccccccccccccccccccccccccccccccccccccccccccccccccccccccccccccccccccc",
"cccccccccccccccccccccccccccccccccccccccccccccccccccccccccccccccccccccccccccccccccccccccccccccccccccccccccccccc",
"cccccccccccccccccccccccccccccccccccccccccccccccccccccccccccccccccccccccccccccccccccccccccccccccccccccccccccccc",
"cccccccccccccccccccccccccccccccccccccccccccccccccccccccccccccccccccccccccccccccccccccccccccccccccccccccccccccc",
"..............................................................................................................",
"bbbbbbbbbbbbbbbbbbbbbbbbbbbbbbbbbbbbbbbbbbbbbbbbbbbbbbbbbbbbbbbbbbbbbbbbbbbbbbbbbbbbbbbbbbbbbbbbbbbbbbbbbbbbbb",
"bbbbbbbbbbbbbbbbbbbbbbbbbbbbbbbbbbbbbbbbbbbbbbbbbbbbbbbbbbbbbbbbbbbbbbbbbbbbbbbbbbbbbbbbbbbbbbbbbbbbbbbbbbbbbb",
"bbbbbbbbbbbbbbbbbbb####bbbbbbb#bbbb#####bbbb#bbbb#bbbbb#bb#bbb###bbb#bbb####bbb##bbb#bbbbbbbbbbbbbbbbbbbbbbbbb",
"bbbbbbbbbbbbbbbbbbb#bbb#bbbbba#abbbbb#bbbbba#abbb#bbbbb#bb#bb#bbb#bb#bb#bbbb#bb#aabb#bbbbbbbbbbbbbbbbbbbbbbbbb",
"bbbbbbbbbbbbbbbbbbb#bbbb#bbbb#b#bbbbb#bbbbb#b#bbbaabbbaabb#bb#bbbbbb#bb#bbbb#bb#b#bb#bbbbbbbbbbbbbbbbbbbbbbbbb",
"bbbbbbbbbbbbbbbbbbb#bbbb#bbbaabaabbbb#bbbbaabaabbb#bbb#bbb#bbb###bbb#bb#bbbb#bb#baab#bbbbbbbbbbbbbbbbbbbbbbbbb",
"bbbbbbbbbbbbbbbbbbb#bbbb#bbb#bbb#bbbb#bbbb#bbb#bbb#bbb#bbb#bbbbbb#bb#bb#bbbb#bb#bb#b#bbbbbbbbbbbbbbbbbbbbbbbbb",
"bbbbbbbbbbbbbbbbbbb#bbbb#bba#####abbb#bbba#####abbaabaabbb#bbbbbb#bb#bb#bbbb#bb#bb#b#bbbbbbbbbbbbbbbbbbbbbbbbb",
"bbbbbbbbbbbbbbbbbbb#bbb#bbb#bbbbb#bbb#bbb#bbbbb#bbb#b#bbbb#bb#bbb#bb#bb#bbbb#bb#bbaa#bbbbbbbbbbbbbbbbbbbbbbbbb",
"bbbbbbbbbbbbbbbbbbb####bbbb#bbbbb#bbb#bbb#bbbbb#bbbb#bbbbb#bbb###bbb#bbb####bbb#bbb##bbbbbbbbbbbbbbbbbbbbbbbbb",
"bbbbbbbbbbbbbbbbbbbbbbbbbbbbbbbbbbbbbbbbbbbbbbbbbbbbbbbbbbbbbbbbbbbbbbbbbbbbbbbbbbbbbbbbbbbbbbbbbbbbbbbbbbbbbb",
"bbbbbbbbbbbbbbbbbbbbbbbbbbbbbbbbbbbbbbbbbbbbbbbbbbbbbbbbbbbbbbbbbbbbbbbbbbbbbbbbbbbbbbbbbbbbbbbbbbbbbbbbbbbbbb",
"bbbbbbbbbbbbbbbbbbbbbbbbbbbbbbbbbbbbbbbbbbbbbbbbbbbbbbbbbbbbbbbbbbbbbbbbbbbbbbbbbbbbbbbbbbbbbbbbbbbbbbbbbbbbbb"
};
